<mxfile host="app.diagrams.net" agent="Mozilla/5.0 (Windows NT 10.0; Win64; x64) AppleWebKit/537.36 (KHTML, like Gecko) Chrome/137.0.0.0 Safari/537.36" version="27.1.5">
  <diagram name="PÃ¡gina-1" id="FyjKeAW64GBD9wfDFaUq">
    <mxGraphModel grid="1" page="1" gridSize="10" guides="1" tooltips="1" connect="1" arrows="1" fold="1" pageScale="1" pageWidth="827" pageHeight="1169" math="0" shadow="0">
      <root>
        <mxCell id="0" />
        <mxCell id="1" parent="0" />
        <mxCell id="bNMkLayojYUjxEpwxnX8-4" value=":Controller" style="html=1;whiteSpace=wrap;" vertex="1" parent="1">
          <mxGeometry x="220.56" y="1280" width="110" height="50" as="geometry" />
        </mxCell>
        <mxCell id="bNMkLayojYUjxEpwxnX8-5" value="&lt;span style=&quot;font-size: 14px;&quot;&gt;verDetalleCompra():DTCompra&lt;/span&gt;" style="endArrow=none;html=1;endSize=12;startArrow=none;startSize=14;startFill=0;edgeStyle=orthogonalEdgeStyle;align=center;verticalAlign=bottom;endFill=0;rounded=0;" edge="1" parent="1">
          <mxGeometry x="-0.1545" y="6" relative="1" as="geometry">
            <mxPoint y="1305.5" as="sourcePoint" />
            <mxPoint x="220" y="1290" as="targetPoint" />
            <mxPoint as="offset" />
          </mxGeometry>
        </mxCell>
        <mxCell id="bNMkLayojYUjxEpwxnX8-12" value="Object" style="html=1;whiteSpace=wrap;" vertex="1" parent="1">
          <mxGeometry x="600.56" y="1290" width="110" height="50" as="geometry" />
        </mxCell>
        <mxCell id="bNMkLayojYUjxEpwxnX8-13" value=":Compra" style="html=1;whiteSpace=wrap;" vertex="1" parent="1">
          <mxGeometry x="590.56" y="1280" width="110" height="50" as="geometry" />
        </mxCell>
        <mxCell id="bNMkLayojYUjxEpwxnX8-14" value="&lt;span style=&quot;font-size: 14px;&quot;&gt;1 a= find(id)&lt;/span&gt;" style="endArrow=none;html=1;endSize=12;startArrow=none;startSize=14;startFill=0;edgeStyle=orthogonalEdgeStyle;align=center;verticalAlign=bottom;endFill=0;rounded=0;exitX=1;exitY=0.5;exitDx=0;exitDy=0;entryX=0;entryY=0.5;entryDx=0;entryDy=0;" edge="1" parent="1" source="bNMkLayojYUjxEpwxnX8-4">
          <mxGeometry x="0.0714" y="5" relative="1" as="geometry">
            <mxPoint x="390.56" y="1240" as="sourcePoint" />
            <mxPoint x="589.56" y="1305" as="targetPoint" />
            <Array as="points" />
            <mxPoint as="offset" />
          </mxGeometry>
        </mxCell>
        <mxCell id="bNMkLayojYUjxEpwxnX8-16" value="&lt;span style=&quot;font-size: 14px;&quot;&gt;2.1* [foreach] p= next()&lt;/span&gt;" style="endArrow=none;html=1;endSize=12;startArrow=none;startSize=14;startFill=0;edgeStyle=orthogonalEdgeStyle;align=center;verticalAlign=bottom;endFill=0;rounded=0;entryX=0;entryY=0.75;entryDx=0;entryDy=0;exitX=0.091;exitY=0.92;exitDx=0;exitDy=0;exitPerimeter=0;" edge="1" parent="1" source="T6s4wjMCLeOBwJFXiKp1-46" target="T6s4wjMCLeOBwJFXiKp1-40">
          <mxGeometry x="0.4588" y="10" relative="1" as="geometry">
            <mxPoint x="453.53" y="1559.68" as="sourcePoint" />
            <mxPoint x="679.5899999999999" y="1692.3299999999997" as="targetPoint" />
            <Array as="points">
              <mxPoint x="540" y="1446" />
              <mxPoint x="540" y="1530" />
              <mxPoint x="701" y="1530" />
            </Array>
            <mxPoint as="offset" />
          </mxGeometry>
        </mxCell>
        <mxCell id="bNMkLayojYUjxEpwxnX8-17" value="" style="endArrow=classic;html=1;rounded=0;" edge="1" parent="1">
          <mxGeometry width="50" height="50" relative="1" as="geometry">
            <mxPoint x="349.99999999999994" y="1450" as="sourcePoint" />
            <mxPoint x="399.99999999999994" y="1450" as="targetPoint" />
          </mxGeometry>
        </mxCell>
        <mxCell id="bNMkLayojYUjxEpwxnX8-18" value="" style="endArrow=classic;html=1;rounded=0;" edge="1" parent="1">
          <mxGeometry width="50" height="50" relative="1" as="geometry">
            <mxPoint x="450.56" y="1314.38" as="sourcePoint" />
            <mxPoint x="500.55999999999995" y="1314.38" as="targetPoint" />
          </mxGeometry>
        </mxCell>
        <mxCell id="bNMkLayojYUjxEpwxnX8-20" value=":Controller" style="html=1;whiteSpace=wrap;" vertex="1" parent="1">
          <mxGeometry x="330.56" y="320" width="110" height="50" as="geometry" />
        </mxCell>
        <mxCell id="bNMkLayojYUjxEpwxnX8-21" value="&lt;font style=&quot;font-size: 14px;&quot;&gt;seleccionerCliente(DTCliente):set(DTProducto)&lt;/font&gt;" style="endArrow=none;html=1;endSize=12;startArrow=none;startSize=14;startFill=0;edgeStyle=orthogonalEdgeStyle;align=center;verticalAlign=bottom;endFill=0;rounded=0;" edge="1" parent="1">
          <mxGeometry x="-0.1355" relative="1" as="geometry">
            <mxPoint y="346" as="sourcePoint" />
            <mxPoint x="330" y="330" as="targetPoint" />
            <mxPoint as="offset" />
          </mxGeometry>
        </mxCell>
        <mxCell id="bNMkLayojYUjxEpwxnX8-22" value="Object" style="html=1;whiteSpace=wrap;" vertex="1" parent="1">
          <mxGeometry x="710.56" y="330" width="110" height="50" as="geometry" />
        </mxCell>
        <mxCell id="bNMkLayojYUjxEpwxnX8-23" value=":Usuario" style="html=1;whiteSpace=wrap;" vertex="1" parent="1">
          <mxGeometry x="700.56" y="320" width="110" height="50" as="geometry" />
        </mxCell>
        <mxCell id="bNMkLayojYUjxEpwxnX8-24" value="&lt;span style=&quot;font-size: 14px;&quot;&gt;1 c=find(DTCliente.nick)&lt;/span&gt;" style="endArrow=none;html=1;endSize=12;startArrow=none;startSize=14;startFill=0;edgeStyle=orthogonalEdgeStyle;align=center;verticalAlign=bottom;endFill=0;rounded=0;exitX=1;exitY=0.5;exitDx=0;exitDy=0;entryX=0;entryY=0.5;entryDx=0;entryDy=0;" edge="1" parent="1" source="bNMkLayojYUjxEpwxnX8-20">
          <mxGeometry x="0.0714" y="5" relative="1" as="geometry">
            <mxPoint x="500.56" y="280" as="sourcePoint" />
            <mxPoint x="699.56" y="345.0000000000001" as="targetPoint" />
            <Array as="points" />
            <mxPoint as="offset" />
          </mxGeometry>
        </mxCell>
        <mxCell id="bNMkLayojYUjxEpwxnX8-26" value="&lt;span style=&quot;font-size: 14px;&quot;&gt;2* [foreach] p= next()&lt;/span&gt;" style="endArrow=none;html=1;endSize=12;startArrow=none;startSize=14;startFill=0;edgeStyle=orthogonalEdgeStyle;align=center;verticalAlign=bottom;endFill=0;rounded=0;entryX=0;entryY=0.5;entryDx=0;entryDy=0;" edge="1" parent="1">
          <mxGeometry x="0.2795" y="5" relative="1" as="geometry">
            <mxPoint x="382.56" y="370" as="sourcePoint" />
            <mxPoint x="611.56" y="455" as="targetPoint" />
            <Array as="points">
              <mxPoint x="380.56" y="370" />
              <mxPoint x="382.56" y="370" />
              <mxPoint x="382.56" y="455" />
            </Array>
            <mxPoint as="offset" />
          </mxGeometry>
        </mxCell>
        <mxCell id="bNMkLayojYUjxEpwxnX8-27" value="" style="endArrow=classic;html=1;rounded=0;" edge="1" parent="1">
          <mxGeometry width="50" height="50" relative="1" as="geometry">
            <mxPoint x="491.56" y="470.0000000000001" as="sourcePoint" />
            <mxPoint x="541.56" y="470.0000000000001" as="targetPoint" />
          </mxGeometry>
        </mxCell>
        <mxCell id="bNMkLayojYUjxEpwxnX8-28" value="" style="endArrow=classic;html=1;rounded=0;" edge="1" parent="1">
          <mxGeometry width="50" height="50" relative="1" as="geometry">
            <mxPoint x="560.56" y="354.38" as="sourcePoint" />
            <mxPoint x="610.56" y="354.38" as="targetPoint" />
          </mxGeometry>
        </mxCell>
        <mxCell id="T6s4wjMCLeOBwJFXiKp1-2" value="" style="endArrow=classic;html=1;rounded=0;" edge="1" parent="1">
          <mxGeometry width="50" height="50" relative="1" as="geometry">
            <mxPoint x="589.3399999999999" y="1540" as="sourcePoint" />
            <mxPoint x="639.3399999999999" y="1540" as="targetPoint" />
          </mxGeometry>
        </mxCell>
        <mxCell id="T6s4wjMCLeOBwJFXiKp1-3" value="Recuerdo cliente c" style="shape=note;whiteSpace=wrap;html=1;backgroundOutline=1;darkOpacity=0.05;" vertex="1" parent="1">
          <mxGeometry x="740.56" y="405" width="80" height="100" as="geometry" />
        </mxCell>
        <mxCell id="T6s4wjMCLeOBwJFXiKp1-5" value="" style="endArrow=none;dashed=1;html=1;rounded=0;exitX=0.2;exitY=0.02;exitDx=0;exitDy=0;exitPerimeter=0;" edge="1" parent="1" source="T6s4wjMCLeOBwJFXiKp1-3">
          <mxGeometry width="50" height="50" relative="1" as="geometry">
            <mxPoint x="782" y="416" as="sourcePoint" />
            <mxPoint x="770" y="370" as="targetPoint" />
          </mxGeometry>
        </mxCell>
        <mxCell id="T6s4wjMCLeOBwJFXiKp1-6" value="Object" style="html=1;whiteSpace=wrap;" vertex="1" parent="1">
          <mxGeometry x="621.56" y="440" width="110" height="50" as="geometry" />
        </mxCell>
        <mxCell id="T6s4wjMCLeOBwJFXiKp1-7" value=":Producto" style="html=1;whiteSpace=wrap;" vertex="1" parent="1">
          <mxGeometry x="611.56" y="430" width="110" height="50" as="geometry" />
        </mxCell>
        <mxCell id="T6s4wjMCLeOBwJFXiKp1-8" value="&lt;font&gt;&lt;span style=&quot;font-size: 14px;&quot;&gt;3* p =&amp;nbsp;&lt;/span&gt;&lt;span style=&quot;font-size: 12px; text-align: left;&quot;&gt;retornarDTProducto():DTProducto&lt;/span&gt;&lt;/font&gt;" style="endArrow=none;html=1;endSize=12;startArrow=none;startSize=14;startFill=0;edgeStyle=orthogonalEdgeStyle;align=center;verticalAlign=bottom;endFill=0;rounded=0;entryX=0;entryY=0.5;entryDx=0;entryDy=0;exitX=0.289;exitY=1.047;exitDx=0;exitDy=0;exitPerimeter=0;" edge="1" parent="1" source="bNMkLayojYUjxEpwxnX8-20" target="T6s4wjMCLeOBwJFXiKp1-9">
          <mxGeometry x="0.4159" y="5" relative="1" as="geometry">
            <mxPoint x="362" y="480" as="sourcePoint" />
            <mxPoint x="591" y="565" as="targetPoint" />
            <Array as="points">
              <mxPoint x="362" y="565" />
            </Array>
            <mxPoint as="offset" />
          </mxGeometry>
        </mxCell>
        <mxCell id="T6s4wjMCLeOBwJFXiKp1-9" value="p:Producto" style="html=1;whiteSpace=wrap;" vertex="1" parent="1">
          <mxGeometry x="650" y="540" width="110" height="50" as="geometry" />
        </mxCell>
        <mxCell id="T6s4wjMCLeOBwJFXiKp1-10" value=":Controller" style="html=1;whiteSpace=wrap;" vertex="1" parent="1">
          <mxGeometry x="220.56" y="640" width="110" height="50" as="geometry" />
        </mxCell>
        <mxCell id="T6s4wjMCLeOBwJFXiKp1-11" value="&lt;font style=&quot;font-size: 14px;&quot;&gt;agregarProducto(DTProducto)&lt;/font&gt;" style="endArrow=none;html=1;endSize=12;startArrow=none;startSize=14;startFill=0;edgeStyle=orthogonalEdgeStyle;align=center;verticalAlign=bottom;endFill=0;rounded=0;" edge="1" parent="1">
          <mxGeometry x="-0.1036" relative="1" as="geometry">
            <mxPoint y="666" as="sourcePoint" />
            <mxPoint x="220" y="650" as="targetPoint" />
            <mxPoint as="offset" />
          </mxGeometry>
        </mxCell>
        <mxCell id="T6s4wjMCLeOBwJFXiKp1-13" value=":Producto" style="html=1;whiteSpace=wrap;" vertex="1" parent="1">
          <mxGeometry x="590.56" y="640" width="110" height="50" as="geometry" />
        </mxCell>
        <mxCell id="T6s4wjMCLeOBwJFXiKp1-14" value="&lt;span style=&quot;font-size: 14px;&quot;&gt;1 p=find(DTProducto.codigo)&lt;/span&gt;" style="endArrow=none;html=1;endSize=12;startArrow=none;startSize=14;startFill=0;edgeStyle=orthogonalEdgeStyle;align=center;verticalAlign=bottom;endFill=0;rounded=0;exitX=1;exitY=0.5;exitDx=0;exitDy=0;entryX=0;entryY=0.5;entryDx=0;entryDy=0;" edge="1" parent="1" source="T6s4wjMCLeOBwJFXiKp1-10">
          <mxGeometry x="0.0714" y="5" relative="1" as="geometry">
            <mxPoint x="390.56" y="600" as="sourcePoint" />
            <mxPoint x="589.56" y="665.0000000000001" as="targetPoint" />
            <Array as="points" />
            <mxPoint as="offset" />
          </mxGeometry>
        </mxCell>
        <mxCell id="T6s4wjMCLeOBwJFXiKp1-15" value="&lt;span style=&quot;font-size: 14px;&quot;&gt;2 [si no tiene compra] c= create()&lt;/span&gt;" style="endArrow=none;html=1;endSize=12;startArrow=none;startSize=14;startFill=0;edgeStyle=orthogonalEdgeStyle;align=center;verticalAlign=bottom;endFill=0;rounded=0;entryX=0;entryY=0.5;entryDx=0;entryDy=0;" edge="1" parent="1" target="T6s4wjMCLeOBwJFXiKp1-21">
          <mxGeometry x="0.2795" y="5" relative="1" as="geometry">
            <mxPoint x="317.96" y="690" as="sourcePoint" />
            <mxPoint x="546.9599999999999" y="775" as="targetPoint" />
            <Array as="points">
              <mxPoint x="318" y="690" />
              <mxPoint x="318" y="775" />
            </Array>
            <mxPoint as="offset" />
          </mxGeometry>
        </mxCell>
        <mxCell id="T6s4wjMCLeOBwJFXiKp1-16" value="" style="endArrow=classic;html=1;rounded=0;" edge="1" parent="1">
          <mxGeometry width="50" height="50" relative="1" as="geometry">
            <mxPoint x="459.78" y="740.0000000000001" as="sourcePoint" />
            <mxPoint x="509.78" y="740.0000000000001" as="targetPoint" />
          </mxGeometry>
        </mxCell>
        <mxCell id="T6s4wjMCLeOBwJFXiKp1-17" value="" style="endArrow=classic;html=1;rounded=0;" edge="1" parent="1">
          <mxGeometry width="50" height="50" relative="1" as="geometry">
            <mxPoint x="450.56" y="674.38" as="sourcePoint" />
            <mxPoint x="500.55999999999995" y="674.38" as="targetPoint" />
          </mxGeometry>
        </mxCell>
        <mxCell id="T6s4wjMCLeOBwJFXiKp1-21" value=":Compra" style="html=1;whiteSpace=wrap;" vertex="1" parent="1">
          <mxGeometry x="595.3399999999999" y="750" width="110" height="50" as="geometry" />
        </mxCell>
        <mxCell id="T6s4wjMCLeOBwJFXiKp1-24" value="" style="endArrow=classic;html=1;rounded=0;" edge="1" parent="1">
          <mxGeometry width="50" height="50" relative="1" as="geometry">
            <mxPoint x="490.56" y="580" as="sourcePoint" />
            <mxPoint x="540.56" y="580" as="targetPoint" />
          </mxGeometry>
        </mxCell>
        <mxCell id="T6s4wjMCLeOBwJFXiKp1-39" value="Object" style="html=1;whiteSpace=wrap;" vertex="1" parent="1">
          <mxGeometry x="710.56" y="1500" width="110" height="50" as="geometry" />
        </mxCell>
        <mxCell id="T6s4wjMCLeOBwJFXiKp1-40" value="ProdComprado" style="html=1;whiteSpace=wrap;" vertex="1" parent="1">
          <mxGeometry x="700.56" y="1490" width="110" height="50" as="geometry" />
        </mxCell>
        <mxCell id="T6s4wjMCLeOBwJFXiKp1-41" value="p:ProdComprado" style="html=1;whiteSpace=wrap;" vertex="1" parent="1">
          <mxGeometry x="717" y="1590" width="110" height="50" as="geometry" />
        </mxCell>
        <mxCell id="T6s4wjMCLeOBwJFXiKp1-46" value="a:Compra" style="html=1;whiteSpace=wrap;" vertex="1" parent="1">
          <mxGeometry x="490.55999999999995" y="1400" width="110" height="50" as="geometry" />
        </mxCell>
        <mxCell id="T6s4wjMCLeOBwJFXiKp1-47" value="&lt;span style=&quot;font-size: 14px;&quot;&gt;2 a= getCompra():DTCompra&lt;/span&gt;" style="endArrow=none;html=1;endSize=12;startArrow=none;startSize=14;startFill=0;edgeStyle=orthogonalEdgeStyle;align=center;verticalAlign=bottom;endFill=0;rounded=0;entryX=0;entryY=0.5;entryDx=0;entryDy=0;" edge="1" parent="1" target="T6s4wjMCLeOBwJFXiKp1-46">
          <mxGeometry x="0.2462" y="5" relative="1" as="geometry">
            <mxPoint x="259.1" y="1330" as="sourcePoint" />
            <mxPoint x="485.56000000000006" y="1463.6499999999996" as="targetPoint" />
            <Array as="points">
              <mxPoint x="259" y="1435" />
            </Array>
            <mxPoint as="offset" />
          </mxGeometry>
        </mxCell>
        <mxCell id="T6s4wjMCLeOBwJFXiKp1-48" value=":Controller" style="html=1;whiteSpace=wrap;" vertex="1" parent="1">
          <mxGeometry x="220.50000000000006" y="1680" width="110" height="50" as="geometry" />
        </mxCell>
        <mxCell id="T6s4wjMCLeOBwJFXiKp1-49" value="&lt;span style=&quot;font-size: 14px;&quot;&gt;confirmarCompra()&lt;/span&gt;" style="endArrow=none;html=1;endSize=12;startArrow=none;startSize=14;startFill=0;edgeStyle=orthogonalEdgeStyle;align=center;verticalAlign=bottom;endFill=0;rounded=0;" edge="1" parent="1">
          <mxGeometry x="-0.2389" relative="1" as="geometry">
            <mxPoint y="1705.5" as="sourcePoint" />
            <mxPoint x="220" y="1706" as="targetPoint" />
            <mxPoint as="offset" />
          </mxGeometry>
        </mxCell>
        <mxCell id="wESxGU5ZVIkaeVPdWeZk-2" value="c: Compra" style="html=1;whiteSpace=wrap;" vertex="1" parent="1">
          <mxGeometry x="480.55999999999995" y="830" width="110" height="50" as="geometry" />
        </mxCell>
        <mxCell id="wESxGU5ZVIkaeVPdWeZk-3" value="&lt;span style=&quot;font-size: 14px;&quot;&gt;3 agregoProd(p)&lt;/span&gt;" style="endArrow=none;html=1;endSize=12;startArrow=none;startSize=14;startFill=0;edgeStyle=orthogonalEdgeStyle;align=center;verticalAlign=bottom;endFill=0;rounded=0;entryX=0;entryY=0.5;entryDx=0;entryDy=0;exitX=0.14;exitY=1;exitDx=0;exitDy=0;exitPerimeter=0;" edge="1" parent="1" source="T6s4wjMCLeOBwJFXiKp1-10" target="wESxGU5ZVIkaeVPdWeZk-2">
          <mxGeometry x="0.4406" y="5" relative="1" as="geometry">
            <mxPoint x="240.51999999999998" y="715" as="sourcePoint" />
            <mxPoint x="517.56" y="800" as="targetPoint" />
            <Array as="points">
              <mxPoint x="241" y="690" />
              <mxPoint x="241" y="855" />
            </Array>
            <mxPoint as="offset" />
          </mxGeometry>
        </mxCell>
        <mxCell id="wESxGU5ZVIkaeVPdWeZk-4" value="" style="endArrow=classic;html=1;rounded=0;" edge="1" parent="1">
          <mxGeometry width="50" height="50" relative="1" as="geometry">
            <mxPoint x="330.56" y="870" as="sourcePoint" />
            <mxPoint x="380.56" y="870" as="targetPoint" />
          </mxGeometry>
        </mxCell>
        <mxCell id="wESxGU5ZVIkaeVPdWeZk-5" value="b: ProdComprado" style="html=1;whiteSpace=wrap;" vertex="1" parent="1">
          <mxGeometry x="710" y="990" width="110" height="50" as="geometry" />
        </mxCell>
        <mxCell id="wESxGU5ZVIkaeVPdWeZk-6" value="Object" style="html=1;whiteSpace=wrap;" vertex="1" parent="1">
          <mxGeometry x="710" y="920" width="110" height="50" as="geometry" />
        </mxCell>
        <mxCell id="wESxGU5ZVIkaeVPdWeZk-7" value=":ProdComprado" style="html=1;whiteSpace=wrap;" vertex="1" parent="1">
          <mxGeometry x="700" y="910" width="110" height="50" as="geometry" />
        </mxCell>
        <mxCell id="wESxGU5ZVIkaeVPdWeZk-8" value="&lt;span style=&quot;font-size: 14px;&quot;&gt;3.1*[foreach] b= next()&amp;nbsp;&lt;/span&gt;" style="endArrow=none;html=1;endSize=12;startArrow=none;startSize=14;startFill=0;edgeStyle=orthogonalEdgeStyle;align=center;verticalAlign=bottom;endFill=0;rounded=0;exitX=0.142;exitY=1.013;exitDx=0;exitDy=0;exitPerimeter=0;" edge="1" parent="1">
          <mxGeometry x="0.3245" y="8" relative="1" as="geometry">
            <mxPoint x="571.7399999999998" y="880.6499999999999" as="sourcePoint" />
            <mxPoint x="736" y="938" as="targetPoint" />
            <Array as="points">
              <mxPoint x="571.56" y="890" />
              <mxPoint x="571.56" y="890" />
              <mxPoint x="571.56" y="937" />
            </Array>
            <mxPoint as="offset" />
          </mxGeometry>
        </mxCell>
        <mxCell id="wESxGU5ZVIkaeVPdWeZk-9" value="&lt;span style=&quot;font-size: 14px;&quot;&gt;3.2* b= tieneArt(p):bool&lt;/span&gt;" style="endArrow=none;html=1;endSize=12;startArrow=none;startSize=14;startFill=0;edgeStyle=orthogonalEdgeStyle;align=center;verticalAlign=bottom;endFill=0;rounded=0;exitX=0.595;exitY=1;exitDx=0;exitDy=0;exitPerimeter=0;" edge="1" parent="1" source="wESxGU5ZVIkaeVPdWeZk-2" target="wESxGU5ZVIkaeVPdWeZk-5">
          <mxGeometry x="0.4483" relative="1" as="geometry">
            <mxPoint x="552.2999999999998" y="950" as="sourcePoint" />
            <mxPoint x="716.5600000000001" y="1007.3500000000001" as="targetPoint" />
            <Array as="points">
              <mxPoint x="552" y="880" />
              <mxPoint x="552" y="1006" />
            </Array>
            <mxPoint as="offset" />
          </mxGeometry>
        </mxCell>
        <mxCell id="wESxGU5ZVIkaeVPdWeZk-12" value=":ProdComprado" style="html=1;whiteSpace=wrap;" vertex="1" parent="1">
          <mxGeometry x="717" y="1050" width="110" height="50" as="geometry" />
        </mxCell>
        <mxCell id="wESxGU5ZVIkaeVPdWeZk-13" value=":ProdComprado" style="html=1;whiteSpace=wrap;" vertex="1" parent="1">
          <mxGeometry x="710.56" y="1110" width="110" height="50" as="geometry" />
        </mxCell>
        <mxCell id="wESxGU5ZVIkaeVPdWeZk-14" value="&lt;span style=&quot;font-size: 14px;&quot;&gt;3.3 [b!= false] cp = create(p)&lt;/span&gt;" style="endArrow=none;html=1;endSize=12;startArrow=none;startSize=14;startFill=0;edgeStyle=orthogonalEdgeStyle;align=center;verticalAlign=bottom;endFill=0;rounded=0;exitX=0.506;exitY=1.018;exitDx=0;exitDy=0;exitPerimeter=0;entryX=0;entryY=0.5;entryDx=0;entryDy=0;" edge="1" parent="1" source="wESxGU5ZVIkaeVPdWeZk-2" target="wESxGU5ZVIkaeVPdWeZk-12">
          <mxGeometry x="0.506" y="6" relative="1" as="geometry">
            <mxPoint x="536" y="960" as="sourcePoint" />
            <mxPoint x="710" y="1096" as="targetPoint" />
            <Array as="points">
              <mxPoint x="536" y="1080" />
              <mxPoint x="717" y="1080" />
            </Array>
            <mxPoint as="offset" />
          </mxGeometry>
        </mxCell>
        <mxCell id="wESxGU5ZVIkaeVPdWeZk-15" value="&lt;span style=&quot;font-size: 14px;&quot;&gt;3.4 [b != false] add(cp)&lt;/span&gt;" style="endArrow=none;html=1;endSize=12;startArrow=none;startSize=14;startFill=0;edgeStyle=orthogonalEdgeStyle;align=center;verticalAlign=bottom;endFill=0;rounded=0;exitX=0.412;exitY=1.003;exitDx=0;exitDy=0;exitPerimeter=0;" edge="1" parent="1" source="wESxGU5ZVIkaeVPdWeZk-2">
          <mxGeometry x="0.5643" relative="1" as="geometry">
            <mxPoint x="526" y="930" as="sourcePoint" />
            <mxPoint x="710" y="1140" as="targetPoint" />
            <Array as="points">
              <mxPoint x="526" y="1140" />
              <mxPoint x="710" y="1140" />
            </Array>
            <mxPoint as="offset" />
          </mxGeometry>
        </mxCell>
        <mxCell id="wESxGU5ZVIkaeVPdWeZk-16" value="" style="endArrow=classic;html=1;rounded=0;" edge="1" parent="1">
          <mxGeometry width="50" height="50" relative="1" as="geometry">
            <mxPoint x="636.56" y="944.58" as="sourcePoint" />
            <mxPoint x="686.56" y="944.58" as="targetPoint" />
          </mxGeometry>
        </mxCell>
        <mxCell id="wESxGU5ZVIkaeVPdWeZk-17" value="" style="endArrow=classic;html=1;rounded=0;" edge="1" parent="1">
          <mxGeometry width="50" height="50" relative="1" as="geometry">
            <mxPoint x="625.34" y="1014.58" as="sourcePoint" />
            <mxPoint x="675.34" y="1014.58" as="targetPoint" />
          </mxGeometry>
        </mxCell>
        <mxCell id="wESxGU5ZVIkaeVPdWeZk-18" value="" style="endArrow=classic;html=1;rounded=0;" edge="1" parent="1">
          <mxGeometry width="50" height="50" relative="1" as="geometry">
            <mxPoint x="611.56" y="1090" as="sourcePoint" />
            <mxPoint x="661.56" y="1090" as="targetPoint" />
          </mxGeometry>
        </mxCell>
        <mxCell id="wESxGU5ZVIkaeVPdWeZk-19" value="" style="endArrow=classic;html=1;rounded=0;" edge="1" parent="1">
          <mxGeometry width="50" height="50" relative="1" as="geometry">
            <mxPoint x="607" y="1150" as="sourcePoint" />
            <mxPoint x="657" y="1150" as="targetPoint" />
          </mxGeometry>
        </mxCell>
        <mxCell id="wESxGU5ZVIkaeVPdWeZk-20" value=":Controller" style="html=1;whiteSpace=wrap;" vertex="1" parent="1">
          <mxGeometry x="220.56" y="60" width="110" height="50" as="geometry" />
        </mxCell>
        <mxCell id="wESxGU5ZVIkaeVPdWeZk-21" value="&lt;font style=&quot;font-size: 14px;&quot;&gt;listarClientes():set(str)&lt;/font&gt;" style="endArrow=none;html=1;endSize=12;startArrow=none;startSize=14;startFill=0;edgeStyle=orthogonalEdgeStyle;align=center;verticalAlign=bottom;endFill=0;rounded=0;" edge="1" parent="1">
          <mxGeometry x="-0.065" y="6" relative="1" as="geometry">
            <mxPoint x="-2.220446049250313e-15" y="85.5" as="sourcePoint" />
            <mxPoint x="220" y="70" as="targetPoint" />
            <mxPoint as="offset" />
          </mxGeometry>
        </mxCell>
        <mxCell id="wESxGU5ZVIkaeVPdWeZk-22" value="Object" style="html=1;whiteSpace=wrap;" vertex="1" parent="1">
          <mxGeometry x="600.56" y="70" width="110" height="50" as="geometry" />
        </mxCell>
        <mxCell id="wESxGU5ZVIkaeVPdWeZk-23" value=":Usuario" style="html=1;whiteSpace=wrap;" vertex="1" parent="1">
          <mxGeometry x="590.56" y="60" width="110" height="50" as="geometry" />
        </mxCell>
        <mxCell id="wESxGU5ZVIkaeVPdWeZk-24" value="&lt;span style=&quot;font-size: 14px;&quot;&gt;1* [foreach] c= next()&lt;/span&gt;" style="endArrow=none;html=1;endSize=12;startArrow=none;startSize=14;startFill=0;edgeStyle=orthogonalEdgeStyle;align=center;verticalAlign=bottom;endFill=0;rounded=0;exitX=1;exitY=0.5;exitDx=0;exitDy=0;entryX=0;entryY=0.5;entryDx=0;entryDy=0;" edge="1" parent="1" source="wESxGU5ZVIkaeVPdWeZk-20">
          <mxGeometry x="0.0714" y="5" relative="1" as="geometry">
            <mxPoint x="390.56" y="20" as="sourcePoint" />
            <mxPoint x="589.56" y="85.00000000000011" as="targetPoint" />
            <Array as="points" />
            <mxPoint as="offset" />
          </mxGeometry>
        </mxCell>
        <mxCell id="wESxGU5ZVIkaeVPdWeZk-25" value="&lt;span style=&quot;font-size: 14px;&quot;&gt;2* f=&amp;nbsp;&lt;/span&gt;&lt;span style=&quot;font-size: 14px;&quot;&gt;getCliente(c):DTCliente&lt;/span&gt;" style="endArrow=none;html=1;endSize=12;startArrow=none;startSize=14;startFill=0;edgeStyle=orthogonalEdgeStyle;align=center;verticalAlign=bottom;endFill=0;rounded=0;entryX=0;entryY=0.5;entryDx=0;entryDy=0;" edge="1" parent="1">
          <mxGeometry x="0.3019" y="5" relative="1" as="geometry">
            <mxPoint x="272.56" y="110" as="sourcePoint" />
            <mxPoint x="501.56" y="195" as="targetPoint" />
            <Array as="points">
              <mxPoint x="270.56" y="110" />
              <mxPoint x="272.56" y="110" />
              <mxPoint x="272.56" y="195" />
            </Array>
            <mxPoint as="offset" />
          </mxGeometry>
        </mxCell>
        <mxCell id="wESxGU5ZVIkaeVPdWeZk-26" value="" style="endArrow=classic;html=1;rounded=0;" edge="1" parent="1">
          <mxGeometry width="50" height="50" relative="1" as="geometry">
            <mxPoint x="360.56" y="160.0000000000001" as="sourcePoint" />
            <mxPoint x="410.55999999999995" y="160.0000000000001" as="targetPoint" />
          </mxGeometry>
        </mxCell>
        <mxCell id="wESxGU5ZVIkaeVPdWeZk-27" value="" style="endArrow=classic;html=1;rounded=0;" edge="1" parent="1">
          <mxGeometry width="50" height="50" relative="1" as="geometry">
            <mxPoint x="450.56" y="94.38" as="sourcePoint" />
            <mxPoint x="500.56" y="94.38" as="targetPoint" />
          </mxGeometry>
        </mxCell>
        <mxCell id="wESxGU5ZVIkaeVPdWeZk-30" value="c : Cliente" style="html=1;whiteSpace=wrap;" vertex="1" parent="1">
          <mxGeometry x="501.56" y="170" width="110" height="50" as="geometry" />
        </mxCell>
        <mxCell id="wESxGU5ZVIkaeVPdWeZk-33" value="" style="endArrow=none;html=1;endSize=12;startArrow=none;startSize=14;startFill=0;edgeStyle=orthogonalEdgeStyle;align=center;verticalAlign=bottom;endFill=0;rounded=0;entryX=0;entryY=0.5;entryDx=0;entryDy=0;" edge="1" parent="1">
          <mxGeometry x="0.3082" y="-35" relative="1" as="geometry">
            <mxPoint x="271.56" y="110" as="sourcePoint" />
            <mxPoint x="500.56" y="195" as="targetPoint" />
            <Array as="points">
              <mxPoint x="269.56" y="110" />
              <mxPoint x="271.56" y="110" />
              <mxPoint x="271.56" y="195" />
            </Array>
            <mxPoint as="offset" />
          </mxGeometry>
        </mxCell>
        <mxCell id="wESxGU5ZVIkaeVPdWeZk-35" value="&lt;span style=&quot;font-size: 14px;&quot;&gt;2.2*&amp;nbsp; getProductos():DTProducto&lt;/span&gt;" style="endArrow=none;html=1;endSize=12;startArrow=none;startSize=14;startFill=0;edgeStyle=orthogonalEdgeStyle;align=center;verticalAlign=bottom;endFill=0;rounded=0;entryX=-0.002;entryY=0.679;entryDx=0;entryDy=0;entryPerimeter=0;exitX=0.177;exitY=1.053;exitDx=0;exitDy=0;exitPerimeter=0;" edge="1" parent="1" source="T6s4wjMCLeOBwJFXiKp1-46" target="T6s4wjMCLeOBwJFXiKp1-41">
          <mxGeometry x="0.4588" y="10" relative="1" as="geometry">
            <mxPoint x="511.55999999999995" y="1510" as="sourcePoint" />
            <mxPoint x="710" y="1624" as="targetPoint" />
            <Array as="points">
              <mxPoint x="510" y="1624" />
            </Array>
            <mxPoint as="offset" />
          </mxGeometry>
        </mxCell>
        <mxCell id="wESxGU5ZVIkaeVPdWeZk-36" value="Recuerdo la compra c&amp;nbsp;" style="shape=note;whiteSpace=wrap;html=1;backgroundOutline=1;darkOpacity=0.05;" vertex="1" parent="1">
          <mxGeometry x="325.28" y="895" width="80" height="100" as="geometry" />
        </mxCell>
        <mxCell id="wESxGU5ZVIkaeVPdWeZk-37" value="" style="endArrow=none;dashed=1;html=1;rounded=0;entryX=0;entryY=1;entryDx=0;entryDy=0;exitX=0;exitY=0;exitDx=80;exitDy=30;exitPerimeter=0;" edge="1" parent="1" source="wESxGU5ZVIkaeVPdWeZk-36" target="wESxGU5ZVIkaeVPdWeZk-2">
          <mxGeometry width="50" height="50" relative="1" as="geometry">
            <mxPoint x="266" y="1030" as="sourcePoint" />
            <mxPoint x="316" y="980" as="targetPoint" />
          </mxGeometry>
        </mxCell>
        <mxCell id="wESxGU5ZVIkaeVPdWeZk-38" value=":Cliente" style="html=1;whiteSpace=wrap;" vertex="1" parent="1">
          <mxGeometry x="590" y="1680" width="110" height="50" as="geometry" />
        </mxCell>
        <mxCell id="wESxGU5ZVIkaeVPdWeZk-39" value="&lt;span style=&quot;font-size: 14px;&quot;&gt;1. c= find(DTCliente.nick)&lt;/span&gt;" style="endArrow=none;html=1;endSize=12;startArrow=none;startSize=14;startFill=0;edgeStyle=orthogonalEdgeStyle;align=center;verticalAlign=bottom;endFill=0;rounded=0;entryX=-0.023;entryY=0.502;entryDx=0;entryDy=0;entryPerimeter=0;" edge="1" parent="1" target="wESxGU5ZVIkaeVPdWeZk-38">
          <mxGeometry x="-0.2389" relative="1" as="geometry">
            <mxPoint x="330.5" y="1704.5" as="sourcePoint" />
            <mxPoint x="550.5" y="1689" as="targetPoint" />
            <mxPoint as="offset" />
          </mxGeometry>
        </mxCell>
        <mxCell id="wESxGU5ZVIkaeVPdWeZk-40" value=":Compra" style="html=1;whiteSpace=wrap;" vertex="1" parent="1">
          <mxGeometry x="580" y="1791" width="110" height="50" as="geometry" />
        </mxCell>
        <mxCell id="wESxGU5ZVIkaeVPdWeZk-41" value="" style="endArrow=classic;html=1;rounded=0;" edge="1" parent="1">
          <mxGeometry width="50" height="50" relative="1" as="geometry">
            <mxPoint x="590.56" y="1639.17" as="sourcePoint" />
            <mxPoint x="640.56" y="1639.17" as="targetPoint" />
          </mxGeometry>
        </mxCell>
        <mxCell id="wESxGU5ZVIkaeVPdWeZk-42" value="&lt;span style=&quot;font-size: 14px;&quot;&gt;2. b= find(DTCompra.id)&lt;/span&gt;" style="endArrow=none;html=1;endSize=12;startArrow=none;startSize=14;startFill=0;edgeStyle=orthogonalEdgeStyle;align=center;verticalAlign=bottom;endFill=0;rounded=0;entryX=-0.023;entryY=0.502;entryDx=0;entryDy=0;entryPerimeter=0;" edge="1" parent="1">
          <mxGeometry x="0.0725" y="5" relative="1" as="geometry">
            <mxPoint x="320" y="1731" as="sourcePoint" />
            <mxPoint x="580" y="1816" as="targetPoint" />
            <mxPoint as="offset" />
            <Array as="points">
              <mxPoint x="320" y="1816" />
            </Array>
          </mxGeometry>
        </mxCell>
        <mxCell id="wESxGU5ZVIkaeVPdWeZk-43" value="Recuerdo id compra y DTCliente" style="shape=note;whiteSpace=wrap;html=1;backgroundOutline=1;darkOpacity=0.05;" vertex="1" parent="1">
          <mxGeometry x="64.78" y="1726" width="80" height="100" as="geometry" />
        </mxCell>
        <mxCell id="wESxGU5ZVIkaeVPdWeZk-44" value="" style="endArrow=none;dashed=1;html=1;rounded=0;entryX=0;entryY=1;entryDx=0;entryDy=0;exitX=0;exitY=0;exitDx=80;exitDy=30;exitPerimeter=0;" edge="1" parent="1" source="wESxGU5ZVIkaeVPdWeZk-43">
          <mxGeometry width="50" height="50" relative="1" as="geometry">
            <mxPoint x="5.500000000000028" y="1861" as="sourcePoint" />
            <mxPoint x="220.5" y="1711" as="targetPoint" />
          </mxGeometry>
        </mxCell>
        <mxCell id="wESxGU5ZVIkaeVPdWeZk-58" value="&lt;font style=&quot;font-size: 14px;&quot;&gt;2 asociarCompra(c)&lt;/font&gt;" style="endArrow=none;html=1;endSize=12;startArrow=none;startSize=14;startFill=0;edgeStyle=orthogonalEdgeStyle;align=center;verticalAlign=bottom;endFill=0;rounded=0;exitX=0;exitY=1;exitDx=0;exitDy=0;entryX=0.007;entryY=0.388;entryDx=0;entryDy=0;entryPerimeter=0;" edge="1" parent="1">
          <mxGeometry x="0.5252" y="10" relative="1" as="geometry">
            <mxPoint x="240" y="1730" as="sourcePoint" />
            <mxPoint x="394.05999999999995" y="1930" as="targetPoint" />
            <Array as="points">
              <mxPoint x="242.5" y="1730" />
              <mxPoint x="242.5" y="1930" />
            </Array>
            <mxPoint as="offset" />
          </mxGeometry>
        </mxCell>
        <mxCell id="wESxGU5ZVIkaeVPdWeZk-59" value="" style="endArrow=classic;html=1;rounded=0;" edge="1" parent="1">
          <mxGeometry width="50" height="50" relative="1" as="geometry">
            <mxPoint x="410" y="1826" as="sourcePoint" />
            <mxPoint x="460" y="1826" as="targetPoint" />
          </mxGeometry>
        </mxCell>
        <mxCell id="wESxGU5ZVIkaeVPdWeZk-60" value="" style="endArrow=classic;html=1;rounded=0;" edge="1" parent="1">
          <mxGeometry width="50" height="50" relative="1" as="geometry">
            <mxPoint x="410" y="1711" as="sourcePoint" />
            <mxPoint x="460" y="1711" as="targetPoint" />
            <Array as="points">
              <mxPoint x="430" y="1711" />
            </Array>
          </mxGeometry>
        </mxCell>
        <mxCell id="wESxGU5ZVIkaeVPdWeZk-91" value="b: Compra" style="html=1;whiteSpace=wrap;" vertex="1" parent="1">
          <mxGeometry x="374" y="1911" width="110" height="50" as="geometry" />
        </mxCell>
        <mxCell id="wESxGU5ZVIkaeVPdWeZk-92" value="c: Cliente" style="html=1;whiteSpace=wrap;" vertex="1" parent="1">
          <mxGeometry x="607" y="1911" width="110" height="50" as="geometry" />
        </mxCell>
        <mxCell id="wESxGU5ZVIkaeVPdWeZk-93" value="Object" style="html=1;whiteSpace=wrap;" vertex="1" parent="1">
          <mxGeometry x="330.56" y="2030" width="110" height="50" as="geometry" />
        </mxCell>
        <mxCell id="wESxGU5ZVIkaeVPdWeZk-94" value=":Compra" style="html=1;whiteSpace=wrap;" vertex="1" parent="1">
          <mxGeometry x="320.56" y="2020" width="110" height="50" as="geometry" />
        </mxCell>
        <mxCell id="wESxGU5ZVIkaeVPdWeZk-95" value="&lt;font style=&quot;font-size: 14px;&quot;&gt;2.1 asociarProd()&lt;/font&gt;" style="endArrow=none;html=1;endSize=12;startArrow=none;startSize=14;startFill=0;edgeStyle=orthogonalEdgeStyle;align=center;verticalAlign=bottom;endFill=0;rounded=0;entryX=-0.03;entryY=0.409;entryDx=0;entryDy=0;entryPerimeter=0;" edge="1" parent="1" target="wESxGU5ZVIkaeVPdWeZk-92">
          <mxGeometry x="0.0021" y="3" relative="1" as="geometry">
            <mxPoint x="485" y="1931" as="sourcePoint" />
            <mxPoint x="606" y="1931" as="targetPoint" />
            <mxPoint as="offset" />
          </mxGeometry>
        </mxCell>
        <mxCell id="wESxGU5ZVIkaeVPdWeZk-96" value="&lt;font style=&quot;font-size: 14px;&quot;&gt;3 add(b):id&lt;/font&gt;" style="endArrow=none;html=1;endSize=12;startArrow=none;startSize=14;startFill=0;edgeStyle=orthogonalEdgeStyle;align=center;verticalAlign=bottom;endFill=0;rounded=0;entryX=0;entryY=0.5;entryDx=0;entryDy=0;exitX=0;exitY=1;exitDx=0;exitDy=0;" edge="1" parent="1" source="T6s4wjMCLeOBwJFXiKp1-48" target="wESxGU5ZVIkaeVPdWeZk-94">
          <mxGeometry x="0.7829" y="5" relative="1" as="geometry">
            <mxPoint x="161.25" y="1950" as="sourcePoint" />
            <mxPoint x="281.75" y="2030" as="targetPoint" />
            <mxPoint as="offset" />
          </mxGeometry>
        </mxCell>
        <mxCell id="wESxGU5ZVIkaeVPdWeZk-97" value="&lt;font style=&quot;font-size: 14px;&quot;&gt;2.1.1&amp;nbsp;&lt;/font&gt;&lt;span style=&quot;font-size: 14px;&quot;&gt;add(b):id&lt;/span&gt;" style="endArrow=none;html=1;endSize=12;startArrow=none;startSize=14;startFill=0;edgeStyle=orthogonalEdgeStyle;align=center;verticalAlign=bottom;endFill=0;rounded=0;entryX=-0.03;entryY=0.409;entryDx=0;entryDy=0;entryPerimeter=0;exitX=0;exitY=0.64;exitDx=0;exitDy=0;exitPerimeter=0;" edge="1" parent="1" source="wESxGU5ZVIkaeVPdWeZk-105">
          <mxGeometry x="0.1464" y="-20" relative="1" as="geometry">
            <mxPoint x="795.0300000000002" y="2073" as="sourcePoint" />
            <mxPoint x="680" y="1961" as="targetPoint" />
            <mxPoint as="offset" />
          </mxGeometry>
        </mxCell>
        <mxCell id="wESxGU5ZVIkaeVPdWeZk-98" value="" style="endArrow=classic;html=1;rounded=0;" edge="1" parent="1">
          <mxGeometry width="50" height="50" relative="1" as="geometry">
            <mxPoint x="280" y="1941" as="sourcePoint" />
            <mxPoint x="330" y="1941" as="targetPoint" />
          </mxGeometry>
        </mxCell>
        <mxCell id="wESxGU5ZVIkaeVPdWeZk-99" value="" style="endArrow=classic;html=1;rounded=0;" edge="1" parent="1">
          <mxGeometry width="50" height="50" relative="1" as="geometry">
            <mxPoint x="530" y="1941" as="sourcePoint" />
            <mxPoint x="580" y="1941" as="targetPoint" />
          </mxGeometry>
        </mxCell>
        <mxCell id="wESxGU5ZVIkaeVPdWeZk-100" value="" style="endArrow=classic;html=1;rounded=0;" edge="1" parent="1">
          <mxGeometry width="50" height="50" relative="1" as="geometry">
            <mxPoint x="240" y="2054.5" as="sourcePoint" />
            <mxPoint x="290" y="2054.5" as="targetPoint" />
          </mxGeometry>
        </mxCell>
        <mxCell id="wESxGU5ZVIkaeVPdWeZk-101" value="lista de Compras del vendedor" style="shape=note2;boundedLbl=1;whiteSpace=wrap;html=1;size=25;verticalAlign=top;align=center;" vertex="1" parent="1">
          <mxGeometry x="705.34" y="2160" width="80" height="110" as="geometry" />
        </mxCell>
        <mxCell id="wESxGU5ZVIkaeVPdWeZk-102" value="" style="endArrow=none;dashed=1;html=1;rounded=0;entryX=0.676;entryY=1.063;entryDx=0;entryDy=0;entryPerimeter=0;" edge="1" parent="1" target="wESxGU5ZVIkaeVPdWeZk-104">
          <mxGeometry width="50" height="50" relative="1" as="geometry">
            <mxPoint x="785.34" y="2210" as="sourcePoint" />
            <mxPoint x="795.34" y="2110" as="targetPoint" />
          </mxGeometry>
        </mxCell>
        <mxCell id="wESxGU5ZVIkaeVPdWeZk-103" value="" style="endArrow=classic;html=1;rounded=0;" edge="1" parent="1">
          <mxGeometry width="50" height="50" relative="1" as="geometry">
            <mxPoint x="720" y="2081" as="sourcePoint" />
            <mxPoint x="770" y="2081" as="targetPoint" />
          </mxGeometry>
        </mxCell>
        <mxCell id="wESxGU5ZVIkaeVPdWeZk-104" value="Object" style="html=1;whiteSpace=wrap;" vertex="1" parent="1">
          <mxGeometry x="717" y="2051" width="110" height="50" as="geometry" />
        </mxCell>
        <mxCell id="wESxGU5ZVIkaeVPdWeZk-105" value=":Compra" style="html=1;whiteSpace=wrap;" vertex="1" parent="1">
          <mxGeometry x="707" y="2041" width="110" height="50" as="geometry" />
        </mxCell>
        <mxCell id="wESxGU5ZVIkaeVPdWeZk-106" value="Lista de compras del sistema" style="shape=note2;boundedLbl=1;whiteSpace=wrap;html=1;size=25;verticalAlign=top;align=center;" vertex="1" parent="1">
          <mxGeometry x="290" y="2140" width="80" height="110" as="geometry" />
        </mxCell>
        <mxCell id="wESxGU5ZVIkaeVPdWeZk-107" value="" style="endArrow=none;dashed=1;html=1;rounded=0;entryX=0;entryY=1;entryDx=0;entryDy=0;" edge="1" parent="1">
          <mxGeometry width="50" height="50" relative="1" as="geometry">
            <mxPoint x="371.55999999999995" y="2180" as="sourcePoint" />
            <mxPoint x="381.55999999999995" y="2080" as="targetPoint" />
          </mxGeometry>
        </mxCell>
        <mxCell id="UabWxkPZbBfOJLjvW2Sx-1" value="&lt;font style=&quot;font-size: 24px;&quot;&gt;&lt;b&gt;Realizar Compra&lt;/b&gt;&lt;/font&gt;" style="text;html=1;align=center;verticalAlign=middle;resizable=0;points=[];autosize=1;strokeColor=none;fillColor=none;" vertex="1" parent="1">
          <mxGeometry x="309" width="210" height="40" as="geometry" />
        </mxCell>
        <mxCell id="UabWxkPZbBfOJLjvW2Sx-2" value="" style="endArrow=classic;html=1;rounded=0;" edge="1" parent="1">
          <mxGeometry width="50" height="50" relative="1" as="geometry">
            <mxPoint x="661.62" y="2020" as="sourcePoint" />
            <mxPoint x="661.62" y="2070" as="targetPoint" />
          </mxGeometry>
        </mxCell>
      </root>
    </mxGraphModel>
  </diagram>
</mxfile>
